<svg xmlns="http://www.w3.org/2000/svg" viewBox="0 0 192 192" fill="none">
  <defs>
    <linearGradient id="bg" x1="0%" y1="0%" x2="100%" y2="100%">
      <stop offset="0%" style="stop-color:#ec4899"/>
      <stop offset="100%" style="stop-color:#f472b6"/>
    </linearGradient>
  </defs>
  <rect width="192" height="192" rx="40" fill="url(#bg)"/>
  <g transform="translate(36, 36)">
    <path d="M60 20C60 20 75 35 75 52.5C75 70 60 85 60 85C60 85 45 70 45 52.5C45 35 60 20 60 20Z" fill="white" fill-opacity="0.95"/>
    <path d="M40 50C40 50 48 58 48 65C48 72 40 80 40 80C40 80 32 72 32 65C32 58 40 50 40 50Z" fill="white" fill-opacity="0.6"/>
    <path d="M80 50C80 50 88 58 88 65C88 72 80 80 80 80C80 80 72 72 72 65C72 58 80 50 80 50Z" fill="white" fill-opacity="0.6"/>
    <circle cx="60" cy="95" r="8" fill="white" fill-opacity="0.8"/>
  </g>
</svg>
